<?xml version="1.0" encoding="UTF-8" standalone="no"?>
<!-- Created with Inkscape (http://www.inkscape.org/) -->

<svg
   xmlns:dc="http://purl.org/dc/elements/1.1/"
   xmlns:cc="http://creativecommons.org/ns#"
   xmlns:rdf="http://www.w3.org/1999/02/22-rdf-syntax-ns#"
   xmlns:svg="http://www.w3.org/2000/svg"
   xmlns="http://www.w3.org/2000/svg"
   xmlns:sodipodi="http://sodipodi.sourceforge.net/DTD/sodipodi-0.dtd"
   xmlns:inkscape="http://www.inkscape.org/namespaces/inkscape"
   width="210mm"
   height="297mm"
   viewBox="0 0 210 297"
   version="1.1"
   id="svg3729"
   inkscape:version="0.92.3 (2405546, 2018-03-11)"
   sodipodi:docname="drawing-1.svg">
  <defs
     id="defs3723" />
  <sodipodi:namedview
     id="base"
     pagecolor="#ffffff"
     bordercolor="#666666"
     borderopacity="1.0"
     inkscape:pageopacity="0.0"
     inkscape:pageshadow="2"
     inkscape:zoom="1.01"
     inkscape:cx="269.30693"
     inkscape:cy="649.08937"
     inkscape:document-units="mm"
     inkscape:current-layer="layer1"
     showgrid="false"
     inkscape:window-width="1920"
     inkscape:window-height="1017"
     inkscape:window-x="-8"
     inkscape:window-y="-1"
     inkscape:window-maximized="1" />
  <metadata
     id="metadata3726">
    <rdf:RDF>
      <cc:Work
         rdf:about="">
        <dc:format>image/svg+xml</dc:format>
        <dc:type
           rdf:resource="http://purl.org/dc/dcmitype/StillImage" />
        <dc:title></dc:title>
      </cc:Work>
    </rdf:RDF>
  </metadata>
  <g
     inkscape:label="Layer 1"
     inkscape:groupmode="layer"
     id="layer1">
    <text
       xml:space="preserve"
       style="font-style:normal;font-weight:normal;font-size:10.58333302px;line-height:1.25;font-family:sans-serif;letter-spacing:0px;word-spacing:0px;fill:#000000;fill-opacity:1;stroke:none;stroke-width:0.26458332"
       x="19.385313"
       y="40.275578"
       id="text3771"><tspan
         sodipodi:role="line"
         id="tspan3769"
         x="19.385313"
         y="49.931072"
         style="stroke-width:0.26458332" /></text>
    <g
       aria-label="BadgePirates"
       style="font-style:normal;font-weight:normal;font-size:10.58333302px;line-height:1.25;font-family:sans-serif;letter-spacing:0px;word-spacing:0px;fill:#000000;fill-opacity:1;stroke:none;stroke-width:0.26458332"
       id="text3775"
       transform="translate(-1.5717822,-2.3576731)" />
    <g
       aria-label="DefCon 26"
       transform="translate(1.0478502,2.8816007)"
       style="font-style:normal;font-weight:normal;font-size:10.58333302px;line-height:1.25;font-family:sans-serif;letter-spacing:0px;word-spacing:0px;fill:#000000;fill-opacity:1;stroke:none;stroke-width:0.26458332"
       id="text3827">
      <path
         d="m 81.186646,201.64994 q -0.37975,0.97788 -1.117142,1.60622 -0.732575,0.63021 -1.61093,0.79358 -0.609205,0.11267 -1.268546,0.0118 -0.654525,-0.099 -1.642043,-0.48244 l -1.811253,-0.70338 2.785462,-7.17276 1.791984,0.6959 q 1.050141,0.40781 1.606876,0.80141 0.563422,0.39065 0.889261,0.82209 0.554493,0.74197 0.668382,1.66209 0.11389,0.92012 -0.292051,1.96545 z m -0.99154,-0.40169 q 0.327371,-0.843 0.258008,-1.53517 -0.06936,-0.69217 -0.523163,-1.25091 -0.330375,-0.40548 -0.771731,-0.68221 -0.439485,-0.28154 -1.104254,-0.53969 l -0.895992,-0.34795 -2.149426,5.53492 0.895992,0.34794 q 0.688854,0.26751 1.238758,0.36465 0.554721,0.099 1.090078,-0.009 0.667524,-0.13437 1.149468,-0.59027 0.486761,-0.45403 0.812262,-1.29222 z"
         style="stroke-width:0.26458332"
         id="path3833"
         inkscape:connector-curvature="0" />
      <path
         d="m 86.705306,204.13527 -4.121713,-1.04844 q -0.131215,0.51584 -0.07405,0.94096 0.05843,0.42011 0.266452,0.7343 0.199276,0.30664 0.524281,0.51728 0.330013,0.21192 0.760714,0.32148 0.57093,0.14522 1.204195,0.0664 0.639547,-0.0826 0.941,-0.24054 l 0.05008,0.0127 -0.261155,1.02667 q -0.526732,0.0793 -1.056935,0.0884 -0.530204,0.009 -1.076093,-0.12976 -1.392268,-0.35415 -1.982452,-1.30411 -0.588909,-0.95496 -0.236032,-2.34222 0.349056,-1.37223 1.300374,-1.98873 0.956326,-0.61523 2.178317,-0.30439 1.131843,0.28791 1.57468,1.1044 0.447845,0.81777 0.138281,2.03476 z m -0.733047,-0.9543 q 0.183533,-0.74249 -0.08388,-1.24242 -0.262407,-0.49865 -1.013631,-0.68974 -0.756231,-0.19237 -1.320345,0.13871 -0.559106,0.33234 -0.787362,0.97813 z"
         style="stroke-width:0.26458332"
         id="path3835"
         inkscape:connector-curvature="0" />
      <path
         d="m 91.702004,200.56886 -0.05098,-0.008 q -0.150434,-0.0721 -0.39773,-0.16023 -0.246451,-0.0932 -0.440178,-0.12535 -0.616865,-0.10227 -0.942898,0.12654 -0.320089,0.22456 -0.438413,0.93829 l -0.03212,0.19372 1.728242,0.28652 -0.133537,0.80549 -1.697654,-0.28144 -0.810521,4.88904 -0.958435,-0.15889 0.810521,-4.88904 -0.647454,-0.10734 0.133538,-0.80549 0.647453,0.10733 0.03127,-0.18863 q 0.168189,-1.01451 0.762485,-1.47123 0.595142,-0.46182 1.548479,-0.30378 0.321178,0.0532 0.57101,0.1261 0.25493,0.0737 0.462287,0.14997 z"
         style="stroke-width:0.26458332"
         id="path3837"
         inkscape:connector-curvature="0" />
      <path
         d="m 97.196404,207.53612 q -0.29221,0.10381 -0.531784,0.19578 -0.23442,0.0923 -0.613902,0.18483 -0.321329,0.0759 -0.697191,0.11681 -0.371069,0.0465 -0.814395,0.0153 -0.835102,-0.0586 -1.504421,-0.33876 -0.663803,-0.2849 -1.133876,-0.82041 -0.460487,-0.52447 -0.686006,-1.29664 -0.225156,-0.77732 -0.154932,-1.77738 0.0666,-0.94851 0.387148,-1.67716 0.320544,-0.72864 0.861927,-1.20866 0.524832,-0.46565 1.234056,-0.68004 0.714379,-0.21404 1.559791,-0.15468 0.618594,0.0434 1.221535,0.23601 0.608097,0.19293 1.334295,0.62209 l -0.08506,1.21142 -0.07732,-0.005 q -0.596775,-0.57549 -1.203511,-0.86157 -0.606736,-0.28608 -1.318119,-0.33603 -0.582509,-0.0409 -1.065003,0.11688 -0.476976,0.15301 -0.87085,0.52424 -0.38284,0.36164 -0.62551,0.94034 -0.237154,0.57391 -0.291451,1.34715 -0.05683,0.80933 0.118774,1.40704 0.180759,0.59808 0.500441,0.98833 0.33406,0.40681 0.800439,0.62605 0.471896,0.21445 1.008011,0.25209 0.737157,0.0518 1.399263,-0.15558 0.662106,-0.20734 1.259469,-0.67307 l 0.07217,0.005 z"
         style="stroke-width:0.26458332"
         id="path3839"
         inkscape:connector-curvature="0" />
      <path
         d="m 103.32311,204.93944 q 0.0658,1.40923 -0.61886,2.25855 -0.68462,0.84933 -1.8977,0.90594 -1.2234,0.0571 -1.984144,-0.72479 -0.755582,-0.78212 -0.821344,-2.19135 -0.06576,-1.40923 0.613699,-2.25832 0.684383,-0.85448 1.907779,-0.91157 1.21308,-0.0566 1.97406,0.73043 0.76075,0.78187 0.82651,2.19111 z m -1.00143,0.0467 q -0.0523,-1.12016 -0.51634,-1.6417 -0.46431,-0.5267 -1.24377,-0.49032 -0.789792,0.0368 -1.203031,0.6045 -0.408317,0.56225 -0.356044,1.68241 0.05059,1.08402 0.515615,1.62621 0.464788,0.53702 1.24942,0.50041 0.7743,-0.0361 1.1873,-0.60895 0.41792,-0.57821 0.36685,-1.67256 z"
         style="stroke-width:0.26458332"
         id="path3841"
         inkscape:connector-curvature="0" />
      <path
         d="m 109.72889,206.89768 -0.95962,0.15162 -0.51289,-3.24636 q -0.0621,-0.39303 -0.16207,-0.72776 -0.10078,-0.33984 -0.25393,-0.51445 -0.16148,-0.19422 -0.41751,-0.2584 -0.25684,-0.0693 -0.63966,-0.009 -0.39303,0.0621 -0.79115,0.3238 -0.39812,0.26171 -0.74358,0.62496 l 0.67258,4.25701 -0.95962,0.15161 -0.90079,-5.70153 0.95961,-0.15162 0.1,0.63294 q 0.39031,-0.44358 0.83705,-0.72866 0.44675,-0.28509 0.95207,-0.36493 0.92389,-0.14596 1.4967,0.3338 0.57282,0.47976 0.73814,1.52615 z"
         style="stroke-width:0.26458332"
         id="path3843"
         inkscape:connector-curvature="0" />
      <path
         d="m 119.96976,203.89626 -4.92753,1.68905 -0.35021,-1.02168 q 0.36247,-0.6159 0.72495,-1.23181 0.36737,-0.61757 0.66308,-1.20513 0.62691,-1.23097 0.79134,-1.88278 0.16276,-0.6567 -0.05,-1.27753 -0.19437,-0.56706 -0.6797,-0.75578 -0.48211,-0.19529 -1.15183,0.0343 -0.44484,0.15248 -0.9094,0.48653 -0.46455,0.33405 -0.84769,0.82592 l -0.0489,0.0168 -0.35189,-1.02657 q 0.28843,-0.29007 0.81667,-0.62956 0.53313,-0.34116 1.07575,-0.52716 1.11945,-0.38372 1.94094,-0.0589 0.81982,0.31989 1.13652,1.24381 0.14243,0.41551 0.15888,0.81412 0.0197,0.39205 -0.0751,0.78506 -0.0868,0.36843 -0.2453,0.75055 -0.15366,0.38044 -0.39797,0.86296 -0.34712,0.69258 -0.73852,1.36756 -0.39306,0.67009 -0.73626,1.24661 l 3.91563,-1.34219 z"
         style="stroke-width:0.26458332"
         id="path3845"
         inkscape:connector-curvature="0" />
      <path
         d="m 125.13387,198.78047 q 0.50128,1.06055 0.11847,2.06457 -0.38035,0.99714 -1.39419,1.47633 -0.51392,0.24291 -1.00949,0.28281 -0.49557,0.0399 -0.96589,-0.12076 -0.58508,-0.19787 -1.10721,-0.73415 -0.51744,-0.53849 -0.94364,-1.44019 -0.43724,-0.92507 -0.57888,-1.73264 -0.13697,-0.80978 0.0347,-1.57112 0.16161,-0.72227 0.6719,-1.32356 0.50809,-0.60597 1.37242,-1.0145 0.27565,-0.13029 0.47357,-0.19526 0.19792,-0.065 0.41819,-0.0948 l 0.42178,0.89236 -0.0467,0.0221 q -0.16395,-0.008 -0.45896,0.0569 -0.29255,0.0583 -0.5682,0.18854 -1.00449,0.47478 -1.3044,1.38817 -0.30211,0.90871 0.10547,2.02499 0.27983,-0.42377 0.60085,-0.72412 0.32349,-0.30722 0.8234,-0.54351 0.44384,-0.20978 0.81998,-0.28468 0.3786,-0.0818 0.85071,-0.002 0.54585,0.0907 0.95679,0.428 0.41561,0.33513 0.70931,0.95651 z m -0.93076,0.48566 q -0.20537,-0.4345 -0.47089,-0.65767 -0.26085,-0.22537 -0.65456,-0.29649 -0.28558,-0.0479 -0.5693,0.029 -0.28372,0.0769 -0.56871,0.21165 -0.39712,0.1877 -0.69402,0.44235 -0.29689,0.25464 -0.56389,0.62091 0.0392,0.1072 0.0809,0.20752 0.0395,0.0957 0.10795,0.24048 0.34891,0.73818 0.70157,1.09735 0.35513,0.35228 0.73848,0.47403 0.31208,0.10399 0.60607,0.0851 0.29646,-0.0258 0.5908,-0.16493 0.67744,-0.3202 0.87089,-0.91462 0.19125,-0.5991 -0.17533,-1.37466 z"
         style="stroke-width:0.26458332"
         id="path3847"
         inkscape:connector-curvature="0" />
    </g>
    <g
       aria-label="#BadgeLife"
       transform="translate(-2.8816007,-0.2619637)"
       style="font-style:normal;font-weight:normal;font-size:10.58333302px;line-height:1.25;font-family:sans-serif;letter-spacing:0px;word-spacing:0px;fill:#000000;fill-opacity:1;stroke:none;stroke-width:0.26458332"
       id="text3852">
      <path
         d="m 45.446366,127.37717 0.69928,-1.57234 -1.582179,-1.22397 -0.646781,1.45429 -0.637434,-0.28349 0.720278,-1.61955 -1.769457,-1.37514 0.270892,-0.6091 1.769457,1.37513 0.566984,-1.27487 -1.769458,-1.37513 0.270892,-0.60911 1.769458,1.37514 0.625781,-1.40708 0.637435,0.28349 -0.69928,1.57234 1.582179,1.22398 0.646781,-1.4543 0.637434,0.28349 -0.720278,1.61956 1.772079,1.38196 -0.270892,0.6091 -1.772079,-1.38196 -0.566984,1.27487 1.77208,1.38196 -0.270892,0.6091 -1.77208,-1.38195 -0.625781,1.40707 z m 0.973315,-2.16307 0.575383,-1.29376 -1.596865,-1.24182 -0.575383,1.29376 z"
         style="stroke-width:0.26458332"
         id="path3860"
         inkscape:connector-curvature="0" />
      <path
         d="m 41.024383,133.59359 q -0.550492,-0.16121 -0.911044,-0.49294 -0.360552,-0.33174 -0.530207,-0.76373 -0.205329,-0.51244 -0.197512,-1.054 0.0064,-0.5366 0.231465,-1.3053 l 0.766797,-2.61856 7.384518,2.16243 -0.64045,2.18709 q -0.236719,0.80837 -0.413866,1.19266 -0.177146,0.38428 -0.47307,0.69609 -0.332339,0.34422 -0.723311,0.42896 -0.386012,0.0862 -0.852194,-0.0503 -0.525695,-0.15394 -0.819226,-0.53066 -0.288571,-0.37528 -0.38104,-0.88697 l -0.03968,-0.0116 q -0.373033,0.70385 -1.005237,0.98718 -0.627244,0.28479 -1.395948,0.0597 z m 3.811349,-0.67701 q 0.267806,0.0784 0.477444,0.0429 0.209638,-0.0355 0.381795,-0.20051 0.202159,-0.19388 0.329218,-0.51744 0.132017,-0.32211 0.275792,-0.81309 l 0.342735,-1.17042 -2.132534,-0.62447 -0.37178,1.2696 q -0.135061,0.46122 -0.170301,0.74706 -0.03028,0.28729 0.05024,0.56395 0.08052,0.27666 0.286022,0.43914 0.209005,0.1689 0.531365,0.26329 z m -3.551857,-0.35624 q 0.446344,0.1307 0.748402,0.0738 0.302059,-0.0569 0.588667,-0.35532 0.193693,-0.20174 0.328615,-0.53377 0.138429,-0.32562 0.280751,-0.81164 l 0.451655,-1.54237 -2.747496,-0.80456 -0.380494,1.29936 q -0.188795,0.64472 -0.244861,1.07523 -0.05111,0.43196 0.05046,0.74709 0.112089,0.33436 0.322299,0.53592 0.21021,0.20156 0.602002,0.31629 z"
         style="stroke-width:0.26458332"
         id="path3862"
         inkscape:connector-curvature="0" />
      <path
         d="m 37.740113,138.70679 0.163065,-0.95249 0.606131,0.10377 q -0.06479,-0.14217 -0.185193,-0.38822 -0.116182,-0.24009 -0.172986,-0.45953 -0.07617,-0.25945 -0.09938,-0.58324 -0.02831,-0.32465 0.0432,-0.74232 0.131672,-0.76913 0.732586,-1.21675 0.600915,-0.44762 1.390413,-0.31246 0.64688,0.11074 0.997088,0.45381 0.354429,0.34903 0.495566,0.90272 0.140265,0.55878 0.09707,1.30111 -0.0432,0.74233 -0.14546,1.58465 l 0.147713,0.0253 q 0.325986,0.0558 0.559971,-0.0247 0.233113,-0.0754 0.391982,-0.26843 0.152032,-0.18368 0.241612,-0.46195 0.08958,-0.27826 0.142773,-0.58897 0.06453,-0.37692 0.04201,-0.85787 -0.01742,-0.48008 -0.121301,-1.00642 l 0.0087,-0.0509 0.972866,0.16655 q 0.02844,0.29322 0.02944,0.83865 9.96e-4,0.54542 -0.08708,1.05987 -0.102896,0.60104 -0.280631,1.02674 -0.173514,0.43166 -0.468718,0.71666 -0.289239,0.28078 -0.689844,0.38521 -0.400604,0.10443 -0.950707,0.0103 z m 1.563788,-0.71269 1.584091,0.27119 q 0.04953,-0.4424 0.100614,-1.04707 0.05022,-0.59957 0.01274,-0.9625 -0.04652,-0.43263 -0.252503,-0.73003 -0.200889,-0.29654 -0.63384,-0.37066 -0.48898,-0.0837 -0.78914,0.16899 -0.295066,0.25357 -0.398834,0.8597 -0.08633,0.50426 0.03572,0.95506 0.127144,0.45168 0.341154,0.85532 z"
         style="stroke-width:0.26458332"
         id="path3864"
         inkscape:connector-curvature="0" />
      <path
         d="m 37.239767,145.25205 0.05818,-0.96978 0.603529,0.0362 q -0.336017,-0.43949 -0.509959,-0.90549 -0.173941,-0.46601 -0.142064,-0.99732 0.0619,-1.03168 0.892805,-1.5927 0.830598,-0.55587 2.238832,-0.47138 0.732488,0.0439 1.292688,0.28463 0.55989,0.24585 0.940888,0.62592 0.370991,0.37429 0.549472,0.85092 0.178171,0.48179 0.148151,0.98215 -0.02723,0.45394 -0.146288,0.79883 -0.113896,0.34519 -0.338284,0.72 l 2.49665,0.14979 -0.05818,0.96978 z m 1.476734,-0.88467 3.306514,0.19838 q 0.198905,-0.38151 0.284533,-0.68699 0.08563,-0.30548 0.107601,-0.67172 0.0489,-0.81503 -0.491287,-1.30301 -0.540185,-0.48797 -1.582176,-0.55049 -1.026515,-0.0616 -1.58403,0.25699 -0.552357,0.3189 -0.598779,1.09265 -0.02476,0.41267 0.130406,0.84649 0.160323,0.43413 0.427218,0.8177 z"
         style="stroke-width:0.26458332"
         id="path3866"
         inkscape:connector-curvature="0" />
      <path
         d="m 38.12614,151.81023 q -1.4657,0.0749 -2.186109,-0.55583 -0.72041,-0.63069 -0.791062,-2.01382 -0.02346,-0.45932 0.02122,-0.90143 0.03979,-0.43668 0.13687,-0.86593 l 0.990895,-0.0506 0.0026,0.0516 q -0.08077,0.24215 -0.188591,0.76509 -0.112982,0.52321 -0.08662,1.0393 0.02531,0.49545 0.160617,0.81452 0.13531,0.31908 0.356134,0.4889 0.210503,0.17035 0.498308,0.23327 0.287804,0.0629 0.638747,0.045 l 0.526413,-0.0269 q -0.373351,-0.42075 -0.569385,-0.81433 -0.190609,-0.3887 -0.222244,-1.00801 -0.05273,-1.03218 0.659338,-1.67913 0.717488,-0.64205 2.074808,-0.71139 0.743172,-0.038 1.290452,0.14106 0.552705,0.18392 0.963388,0.52515 0.383561,0.31674 0.609354,0.78642 0.230954,0.46942 0.255208,0.94423 0.02557,0.5006 -0.06051,0.84134 -0.08066,0.34563 -0.26785,0.73292 l 0.250888,0.0493 0.0464,0.90833 z m 0.879402,-1.01771 3.142997,-0.16055 q 0.155699,-0.39603 0.210816,-0.73518 0.06054,-0.33425 0.04367,-0.66455 -0.04086,-0.79994 -0.60106,-1.23185 -0.560198,-0.4319 -1.582059,-0.3797 -0.970252,0.0496 -1.453461,0.41575 -0.48321,0.36619 -0.442875,1.15581 0.02162,0.4232 0.203223,0.83822 0.187031,0.41992 0.478749,0.76205 z"
         style="stroke-width:0.26458332"
         id="path3868"
         inkscape:connector-curvature="0" />
      <path
         d="m 41.19409,158.07829 -0.672577,-4.19945 q -0.525569,0.0842 -0.893136,0.30528 -0.362465,0.22029 -0.568363,0.53588 -0.20243,0.30456 -0.266869,0.68646 -0.06362,0.387 0.0067,0.82583 0.09316,0.58169 0.416762,1.13172 0.329518,0.55431 0.594077,0.76838 l 0.0082,0.051 -1.046036,0.16753 q -0.281741,-0.45206 -0.500417,-0.93516 -0.218676,-0.48309 -0.307754,-1.03927 -0.227189,-1.41853 0.410716,-2.33712 0.643008,-0.91941 2.056432,-1.14578 1.398117,-0.22392 2.341404,0.40479 0.944105,0.63382 1.143508,1.87886 0.184693,1.15319 -0.38915,1.88358 -0.573027,0.7355 -1.812962,0.93409 z m 0.585224,-1.05146 q 0.75437,-0.12605 1.107207,-0.56984 0.353655,-0.43868 0.231071,-1.20408 -0.123401,-0.77049 -0.651084,-1.15699 -0.526866,-0.3814 -1.210218,-0.33476 z"
         style="stroke-width:0.26458332"
         id="path3870"
         inkscape:connector-curvature="0" />
      <path
         d="m 40.054763,164.73489 -1.251758,-4.70422 7.435874,-1.97863 0.263108,0.98878 -6.556952,1.74476 0.988649,3.71544 z"
         style="stroke-width:0.26458332"
         id="path3872"
         inkscape:connector-curvature="0" />
      <path
         d="m 47.126789,164.39902 -0.357992,-1.0354 0.952371,-0.32928 0.357992,1.0354 z m -6.388941,2.14339 -0.317465,-0.91819 5.455378,-1.88621 0.317465,0.91818 z"
         style="stroke-width:0.26458332"
         id="path3874"
         inkscape:connector-curvature="0" />
      <path
         d="m 49.155896,168.54661 -0.01953,-0.0478 q -0.0175,-0.16589 -0.07211,-0.42269 -0.04983,-0.25874 -0.124056,-0.44054 -0.236359,-0.57889 -0.602143,-0.73654 -0.359047,-0.15482 -1.028839,0.11865 l -0.1818,0.0742 0.662196,1.62185 -0.755908,0.30864 -0.650476,-1.59315 -4.588074,1.87329 -0.367236,-0.89943 4.588074,-1.8733 -0.248079,-0.60759 0.755908,-0.30864 0.248079,0.6076 0.177017,-0.0723 q 0.952061,-0.38873 1.652574,-0.12215 0.705297,0.26463 1.070579,1.15928 0.123064,0.30141 0.192027,0.55234 0.07092,0.25571 0.114686,0.47228 z"
         style="stroke-width:0.26458332"
         id="path3876"
         inkscape:connector-curvature="0" />
      <path
         d="m 47.511726,174.83694 -1.927127,-3.7913 q -0.474488,0.24119 -0.756613,0.5643 -0.277518,0.32076 -0.3768,0.68426 -0.09936,0.35195 -0.04367,0.73522 0.05803,0.38788 0.259411,0.78405 0.266941,0.52516 0.743524,0.94956 0.483532,0.42666 0.800963,0.54936 l 0.02342,0.0461 -0.944369,0.48002 q -0.406718,-0.34397 -0.762916,-0.73681 -0.356197,-0.39284 -0.61143,-0.89496 -0.650962,-1.28066 -0.325248,-2.35054 0.330321,-1.07222 1.606372,-1.72084 1.26223,-0.6416 2.352802,-0.3322 1.092914,0.31401 1.664261,1.43804 0.529199,1.04111 0.206791,1.91221 -0.320066,0.87571 -1.439489,1.44472 z m 0.234851,-1.18021 q 0.679447,-0.35116 0.879311,-0.88173 0.202205,-0.52595 -0.149033,-1.21695 -0.35358,-0.69561 -0.974317,-0.90181 -0.618396,-0.2016 -1.254577,0.0522 z"
         style="stroke-width:0.26458332"
         id="path3878"
         inkscape:connector-curvature="0" />
    </g>
    <g
       aria-label="BadgePirates.com"
       style="font-style:normal;font-weight:normal;font-size:10.58333302px;line-height:1.25;font-family:sans-serif;letter-spacing:0px;word-spacing:0px;fill:#000000;fill-opacity:1;stroke:none;stroke-width:0.26458332"
       id="text3883"
       transform="translate(1.8337459,3.4055281)">
      <path
         d="m 57.808838,97.950809 q 0.39024,0.420404 0.53,0.889993 0.139761,0.469589 0.06422,0.92751 -0.08611,0.545288 -0.3702,1.006418 -0.280303,0.45761 -0.867354,1.00254 l -1.999759,1.85628 -5.234839,-5.639472 1.670254,-1.550412 q 0.617349,-0.573055 0.966319,-0.812376 0.348969,-0.23932 0.762834,-0.355558 0.461743,-0.125426 0.840943,0.002 0.375685,0.123677 0.706158,0.479695 0.372662,0.401467 0.431816,0.87537 0.05564,0.470115 -0.127023,0.95696 l 0.02812,0.0303 q 0.680887,-0.413456 1.368991,-0.333003 0.684589,0.07667 1.229519,0.663717 z m -3.620229,-1.370641 q -0.189847,-0.204521 -0.3881,-0.281374 -0.198254,-0.07685 -0.430611,-0.02334 -0.272932,0.06298 -0.547784,0.275802 -0.278367,0.209038 -0.653322,0.55709 l -0.893831,0.829699 1.51174,1.628592 0.96958,-0.900013 q 0.35223,-0.326958 0.528897,-0.554406 0.173152,-0.231237 0.24569,-0.510096 0.07254,-0.278859 -0.02074,-0.523666 -0.093,-0.25211 -0.321522,-0.498292 z m 2.868145,2.125169 q -0.316411,-0.340868 -0.605002,-0.446678 -0.288591,-0.10581 -0.687578,0.0037 -0.269688,0.07407 -0.55563,0.290136 -0.28567,0.208767 -0.656837,0.553303 l -1.177889,1.093372 1.947684,2.09823 0.992304,-0.9211 q 0.492365,-0.45704 0.761018,-0.79808 0.265136,-0.34482 0.339305,-0.6675 0.07498,-0.344587 -0.0023,-0.625366 -0.07731,-0.280779 -0.355049,-0.579985 z"
         style="stroke-width:0.26458332"
         id="path3888"
         inkscape:connector-curvature="0" />
      <path
         d="m 64.130395,96.190473 -0.778489,0.572525 -0.364335,-0.495402 q -0.05203,0.147313 -0.136128,0.408018 -0.083,0.25348 -0.194411,0.45088 -0.125245,0.239647 -0.333266,0.488852 -0.20496,0.253369 -0.546329,0.504423 -0.628619,0.462307 -1.371902,0.367474 -0.743283,-0.09483 -1.217837,-0.740103 -0.388828,-0.528707 -0.402831,-1.018752 -0.0129,-0.497271 0.269792,-0.993833 0.286856,-0.499624 0.833185,-1.004046 0.546329,-0.504423 1.204575,-1.039836 l -0.08879,-0.120728 Q 60.807685,93.30351 60.583346,93.19908 60.36317,93.091589 60.114843,93.12026 q -0.236939,0.02672 -0.494563,0.164863 -0.257623,0.138147 -0.511569,0.324907 -0.308065,0.226561 -0.625669,0.588431 -0.320666,0.357707 -0.6112,0.808718 l -0.04163,0.03062 -0.584773,-0.795141 q 0.183043,-0.230835 0.56089,-0.62418 0.377847,-0.393345 0.798314,-0.702571 0.491239,-0.361273 0.914656,-0.544374 0.424519,-0.190326 0.834851,-0.190608 0.403107,-0.0014 0.763986,0.201485 0.36088,0.202868 0.691537,0.652477 z m -1.620439,-0.572311 -0.952169,-1.294706 q -0.342713,0.284116 -0.799173,0.683958 -0.452296,0.39678 -0.677212,0.684069 -0.266789,0.343742 -0.324921,0.700813 -0.06119,0.352908 0.199046,0.706767 0.293917,0.399652 0.685394,0.426066 0.388415,0.02225 0.883817,-0.342084 0.412141,-0.303102 0.637168,-0.712352 0.221966,-0.413412 0.34805,-0.852531 z"
         style="stroke-width:0.26458332"
         id="path3890"
         inkscape:connector-curvature="0" />
      <path
         d="m 69.757354,92.809985 -0.840917,0.486521 -0.302782,-0.523337 q -0.181159,0.522726 -0.473852,0.924905 -0.292694,0.402179 -0.753409,0.668731 -0.894593,0.517576 -1.820936,0.134109 -0.921871,-0.386054 -1.628362,-1.607174 -0.367479,-0.635161 -0.475815,-1.235175 -0.103863,-0.602602 0.0029,-1.130057 0.107483,-0.515921 0.406534,-0.927749 0.303525,-0.414416 0.737402,-0.66544 0.393621,-0.227733 0.746953,-0.318723 0.350743,-0.09546 0.787143,-0.115108 l -1.252534,-2.164915 0.840917,-0.486521 z m -1.552584,-0.743544 -1.658831,-2.86717 q -0.427933,0.0446 -0.729954,0.141722 -0.30202,0.09712 -0.6196,0.280864 -0.706729,0.408885 -0.815683,1.128644 -0.108954,0.71976 0.413798,1.623299 0.514988,0.89012 1.088289,1.179332 0.570713,0.28474 1.241658,-0.103442 0.357837,-0.207031 0.634044,-0.575791 0.27362,-0.373233 0.446279,-0.807458 z"
         style="stroke-width:0.26458332"
         id="path3892"
         inkscape:connector-curvature="0" />
      <path
         d="m 75.491925,89.465101 q 0.58884,1.344302 0.253984,2.241318 -0.334857,0.897016 -1.603423,1.452682 -0.421278,0.184531 -0.850576,0.299233 -0.422491,0.117363 -0.858323,0.17851 l -0.398089,-0.908824 0.04733,-0.02073 q 0.25506,-0.01017 0.782314,-0.09444 0.529327,-0.07953 1.002673,-0.286873 0.454412,-0.199044 0.704932,-0.438537 0.25052,-0.239492 0.331182,-0.506132 0.08481,-0.257174 0.04177,-0.548614 -0.04303,-0.291441 -0.184024,-0.613317 L 74.550201,89.73656 q -0.261354,0.498112 -0.560069,0.820774 -0.296055,0.315854 -0.86407,0.56466 -0.946692,0.414676 -1.803807,-0.02228 -0.854454,-0.443766 -1.399754,-1.688666 -0.298566,-0.681618 -0.32486,-1.256833 -0.02363,-0.582021 0.150132,-1.086901 0.160465,-0.470845 0.519815,-0.848274 0.357276,-0.382163 0.792755,-0.572914 0.459145,-0.201118 0.808287,-0.241219 0.351803,-0.04691 0.780281,-0.0089 l -0.04272,-0.252086 0.833088,-0.364915 z m -1.263098,-0.462227 -1.262689,-2.882676 q -0.425505,-0.0054 -0.762207,0.06307 -0.334042,0.06169 -0.636983,0.194391 -0.733686,0.321374 -0.939332,0.998184 -0.205646,0.676811 0.204883,1.614036 0.389795,0.88989 0.903322,1.212192 0.513526,0.322302 1.237745,0.0051 0.388143,-0.170017 0.712012,-0.486771 0.326529,-0.323562 0.543249,-0.717498 z"
         style="stroke-width:0.26458332"
         id="path3894"
         inkscape:connector-curvature="0" />
      <path
         d="m 81.32797,85.297674 -4.057831,1.273484 q 0.159379,0.507846 0.431373,0.839529 0.270446,0.326752 0.612516,0.48479 0.330662,0.156203 0.717867,0.164673 0.392135,0.0069 0.816161,-0.126152 0.562081,-0.1764 1.059461,-0.576221 0.500764,-0.4063 0.674276,-0.699064 l 0.0493,-0.01547 0.317211,1.01076 q -0.406507,0.344221 -0.852851,0.630535 -0.446344,0.286314 -0.983772,0.454977 -1.370689,0.430169 -2.371958,-0.06802 -1.002816,-0.503122 -1.431437,-1.86888 -0.423979,-1.350967 0.06154,-2.375341 0.490454,-1.025922 1.693505,-1.40348 1.114301,-0.349705 1.920079,0.112347 0.810709,0.460504 1.186719,1.658625 z m -1.125109,-0.426828 q -0.233941,-0.728172 -0.724138,-1.013041 -0.485266,-0.286415 -1.224846,-0.05431 -0.744511,0.233653 -1.050544,0.811734 -0.301102,0.576533 -0.156015,1.245932 z"
         style="stroke-width:0.26458332"
         id="path3896"
         inkscape:connector-curvature="0" />
      <path
         d="m 87.553948,81.340771 q 0.100532,0.501622 0.0095,0.967849 -0.08697,0.460145 -0.338161,0.837252 -0.311958,0.468342 -0.804378,0.772576 -0.493434,0.299167 -1.304136,0.461644 l -1.003244,0.201065 0.563592,2.812121 -1.003244,0.201066 -1.512049,-7.544594 2.047022,-0.410254 q 0.678962,-0.136074 1.173539,-0.113975 0.493561,0.01703 0.90712,0.187127 0.488567,0.202497 0.80796,0.58647 0.324459,0.382958 0.456472,1.041653 z m -1.038701,0.234524 q -0.07819,-0.390151 -0.272881,-0.651545 -0.194688,-0.261395 -0.509924,-0.387951 -0.27469,-0.108331 -0.602039,-0.11124 -0.323296,-0.009 -0.799584,0.08646 l -0.993109,0.199034 0.60421,3.014797 0.84617,-0.169585 q 0.608027,-0.121858 0.966718,-0.304423 0.357676,-0.187633 0.548092,-0.473504 0.189401,-0.290938 0.231851,-0.578777 0.04752,-0.288855 -0.0195,-0.623269 z"
         style="stroke-width:0.26458332"
         id="path3898"
         inkscape:connector-curvature="0" />
      <path
         d="m 90.112743,79.678623 -1.08762,0.1315 -0.120955,-1.000405 1.08762,-0.1315 z m 0.747285,6.69733 -0.964493,0.116613 -0.692856,-5.730524 0.964493,-0.116613 z"
         style="stroke-width:0.26458332"
         id="path3900"
         inkscape:connector-curvature="0" />
      <path
         d="m 96.095113,81.258966 -0.05158,0.0031 q -0.219755,-0.03854 -0.42733,-0.04674 -0.202727,-0.01368 -0.481275,0.0031 -0.448772,0.02703 -0.854477,0.253366 -0.406017,0.22118 -0.773938,0.559136 l 0.246361,4.090529 -0.969759,0.05841 -0.347019,-5.761817 0.96976,-0.05841 0.05126,0.851119 q 0.549769,-0.499042 0.976729,-0.716306 0.431808,-0.222733 0.890897,-0.250382 0.252756,-0.01522 0.367171,-0.0066 0.114104,0.0035 0.343243,0.02592 z"
         style="stroke-width:0.26458332"
         id="path3902"
         inkscape:connector-curvature="0" />
      <path
         d="m 101.60394,86.085976 -0.96596,-0.0274 0.0174,-0.614702 q -0.13163,0.08415 -0.35829,0.237984 -0.22135,0.148814 -0.430609,0.235934 -0.246151,0.111922 -0.563448,0.180468 -0.317444,0.07371 -0.74102,0.0617 -0.780001,-0.02212 -1.307734,-0.554063 -0.527733,-0.53194 -0.505024,-1.332603 0.01861,-0.656027 0.308975,-1.051029 0.29568,-0.400022 0.823995,-0.617675 0.533481,-0.217506 1.274501,-0.279204 0.74102,-0.0617 1.589344,-0.079 l 0.004,-0.149801 q 0.009,-0.330596 -0.10328,-0.55092 -0.10749,-0.220177 -0.32093,-0.350304 -0.20325,-0.124668 -0.491348,-0.174197 -0.288099,-0.04953 -0.603199,-0.05847 -0.382252,-0.01084 -0.855248,0.07914 -0.472851,0.08481 -0.979331,0.261728 l -0.05166,-0.0015 0.02798,-0.986623 q 0.286304,-0.06943 0.82616,-0.147169 0.539856,-0.07774 1.061578,-0.06295 0.609537,0.01729 1.056008,0.133346 0.45179,0.111039 0.7755,0.363197 0.31869,0.246846 0.47846,0.628767 0.15976,0.381921 0.14394,0.939802 z m -0.92567,-1.447928 0.0456,-1.606491 q -0.44497,0.01323 -1.050806,0.04774 -0.600671,0.03466 -0.954713,0.122844 -0.421781,0.106941 -0.687238,0.352728 -0.265311,0.240622 -0.277764,0.679695 -0.01407,0.495894 0.278359,0.757504 0.29257,0.256445 0.907273,0.27388 0.511391,0.0145 0.940534,-0.169773 0.429295,-0.189444 0.798795,-0.458129 z"
         style="stroke-width:0.26458332"
         id="path3904"
         inkscape:connector-curvature="0" />
      <path
         d="m 106.46142,86.563504 q -0.28039,0.04036 -0.60914,0.0491 -0.32361,0.0093 -0.57515,-0.01979 -0.8778,-0.101664 -1.27997,-0.626843 -0.40217,-0.525179 -0.28148,-1.567245 l 0.35315,-3.049198 -0.65193,-0.0755 0.0939,-0.811067 0.65193,0.0755 0.19084,-1.647799 0.96507,0.11177 -0.19084,1.647799 1.99173,0.230676 -0.0939,0.811066 -1.99174,-0.230675 -0.30261,2.612864 q -0.0523,0.451734 -0.0615,0.710778 -0.009,0.253911 0.089,0.488913 0.0892,0.218413 0.27292,0.338538 0.1895,0.115586 0.59503,0.162554 0.23614,0.02735 0.50053,-0.0097 0.26499,-0.04214 0.38327,-0.07526 l 0.0513,0.0059 z"
         style="stroke-width:0.26458332"
         id="path3906"
         inkscape:connector-curvature="0" />
      <path
         d="m 112.91508,85.025879 -4.16679,-0.851829 q -0.10661,0.521482 -0.0293,0.943414 0.0783,0.416868 0.30097,0.720843 0.21359,0.296842 0.54822,0.491839 0.33969,0.196033 0.7751,0.285045 0.57717,0.117993 1.20599,0.0092 0.63491,-0.112832 0.92853,-0.284884 l 0.0506,0.01035 -0.21218,1.037901 q -0.52238,0.104189 -1.05156,0.13842 -0.52917,0.03423 -1.08103,-0.07859 -1.40749,-0.287738 -2.04206,-1.208642 -0.63352,-0.925967 -0.34682,-2.328398 0.2836,-1.387243 1.20461,-2.048155 0.92608,-0.659877 2.16144,-0.40733 1.14422,0.233916 1.62527,1.028496 0.48612,0.795615 0.23461,2.025907 z m -0.77747,-0.918472 q 0.14812,-0.750349 -0.1427,-1.237038 -0.28575,-0.485654 -1.04519,-0.640909 -0.76451,-0.156289 -1.31229,0.201159 -0.54272,0.358483 -0.74009,1.01437 z"
         style="stroke-width:0.26458332"
         id="path3908"
         inkscape:connector-curvature="0" />
      <path
         d="m 118.2079,87.784603 q -0.23296,0.75555 -1.00933,1.046125 -0.77143,0.292098 -1.85291,-0.04135 -0.61234,-0.188805 -1.08176,-0.490366 -0.46296,-0.304976 -0.75534,-0.584398 l 0.32127,-1.041968 0.0494,0.01523 q 0.33749,0.466375 0.81485,0.82987 0.47889,0.358556 0.97271,0.510818 0.61234,0.188804 1.01892,0.09786 0.40658,-0.09095 0.53753,-0.515635 0.10049,-0.325923 -0.0354,-0.551683 -0.13589,-0.225759 -0.63267,-0.508719 -0.18383,-0.105349 -0.48654,-0.263578 -0.29778,-0.156706 -0.53819,-0.30654 -0.66654,-0.416416 -0.85851,-0.881186 -0.18551,-0.468185 -0.018,-1.011391 0.10506,-0.340739 0.33621,-0.599338 0.23609,-0.257076 0.5956,-0.4058 0.3481,-0.14683 0.8139,-0.149218 0.47226,-0.0058 1.00065,0.157117 0.49382,0.152262 0.95946,0.431025 0.47209,0.275347 0.7546,0.551723 l -0.30604,0.992585 -0.0494,-0.01523 q -0.27485,-0.371355 -0.72868,-0.705961 -0.4523,-0.339544 -0.94118,-0.490283 -0.50864,-0.156829 -0.92016,-0.06741 -0.41,0.08449 -0.52876,0.469668 -0.10506,0.340738 0.054,0.579049 0.15412,0.236788 0.58481,0.488555 0.23852,0.138435 0.5363,0.295142 0.30271,0.158228 0.49983,0.273083 0.60123,0.34761 0.84069,0.816207 0.23794,0.473535 0.0522,1.076 z"
         style="stroke-width:0.26458332"
         id="path3910"
         inkscape:connector-curvature="0" />
      <path
         d="m 120.49343,90.469573 -1.14867,-0.453814 0.54115,-1.369753 1.14867,0.453814 z"
         style="stroke-width:0.26458332"
         id="path3912"
         inkscape:connector-curvature="0" />
      <path
         d="m 126.5748,92.882647 q -0.53853,-0.0037 -0.98999,-0.07996 -0.44682,-0.07399 -0.88815,-0.28901 -0.56212,-0.273872 -0.9521,-0.665072 -0.38772,-0.395846 -0.55924,-0.893294 -0.17616,-0.499711 -0.11301,-1.101262 0.0631,-0.601552 0.39587,-1.284454 0.62017,-1.272892 1.6701,-1.658093 1.05458,-0.382937 2.20204,0.176124 0.44598,0.217287 0.81226,0.550952 0.37093,0.335928 0.64036,0.691388 l -0.47305,0.970929 -0.0464,-0.02263 q -0.24788,-0.505908 -0.59379,-0.881383 -0.34126,-0.373211 -0.74543,-0.570128 -0.7433,-0.362145 -1.41978,-0.07092 -0.66958,0.288845 -1.14037,1.255128 -0.45721,0.938409 -0.28582,1.648485 0.1783,0.707694 0.94018,1.078893 0.2648,0.129015 0.57284,0.192872 0.30804,0.06386 0.58071,0.05874 0.238,-0.0048 0.4573,-0.03012 0.22156,-0.03001 0.35759,-0.06145 l 0.0465,0.02263 z"
         style="stroke-width:0.26458332"
         id="path3914"
         inkscape:connector-curvature="0" />
      <path
         d="m 133.2113,93.942221 q -0.73913,1.201641 -1.78313,1.518052 -1.04401,0.316412 -2.07839,-0.31984 -1.04318,-0.641667 -1.23163,-1.716166 -0.18405,-1.071791 0.55509,-2.273432 0.73913,-1.201641 1.77874,-1.520761 1.04671,-0.320813 2.08989,0.320854 1.03438,0.636252 1.22012,1.715152 0.18845,1.074499 -0.55069,2.276141 z m -0.85391,-0.525247 q 0.58752,-0.95515 0.49766,-1.647454 -0.0871,-0.696705 -0.75179,-1.10553 -0.67344,-0.414241 -1.33457,-0.177803 -0.65402,0.234743 -1.24154,1.189894 -0.56856,0.924339 -0.48954,1.634249 0.0817,0.705508 0.75078,1.117041 0.66024,0.406119 1.32408,0.165279 0.67094,-0.242533 1.24492,-1.175676 z"
         style="stroke-width:0.26458332"
         id="path3916"
         inkscape:connector-curvature="0" />
      <path
         d="m 139.50684,102.54092 -0.75099,-0.61633 2.08501,-2.540585 q 0.23604,-0.287614 0.42773,-0.578203 0.19568,-0.287311 0.24293,-0.515941 0.0491,-0.247171 -0.0506,-0.476021 -0.0996,-0.22885 -0.42321,-0.494394 -0.31558,-0.258988 -0.76229,-0.35819 -0.44343,-0.103197 -0.95898,-0.118512 -0.0634,0.101712 -0.15706,0.232102 -0.0904,0.126396 -0.18871,0.246235 l -2.344,2.856169 -0.75099,-0.616329 2.08501,-2.540589 q 0.2426,-0.295603 0.431,-0.582197 0.19568,-0.287311 0.24293,-0.515941 0.0491,-0.247171 -0.0538,-0.472026 -0.0996,-0.22885 -0.42321,-0.494394 -0.30759,-0.252431 -0.74375,-0.356344 -0.43216,-0.100635 -0.93317,-0.117383 l -2.73412,3.331527 -0.751,-0.616325 3.66189,-4.462009 0.75099,0.616325 -0.40651,0.495335 q 0.59085,-0.0031 1.07279,0.118318 0.48594,0.124713 0.88141,0.449267 0.45539,0.373729 0.61361,0.824459 0.16221,0.454009 0.0393,0.921407 0.77011,-0.0098 1.28329,0.130632 0.51647,0.136393 0.94389,0.487174 0.73502,0.603212 0.71538,1.335825 -0.0124,0.731898 -0.66803,1.530825 z"
         style="stroke-width:0.26458332"
         id="path3918"
         inkscape:connector-curvature="0" />
    </g>
    <g
       aria-label="2018"
       style="font-style:normal;font-weight:normal;font-size:10.58333302px;line-height:1.25;font-family:sans-serif;letter-spacing:0px;word-spacing:0px;fill:#000000;fill-opacity:1;stroke:none;stroke-width:0.26458332"
       id="text3923"
       transform="translate(-4.9773102,-0.5239274)">
      <path
         d="m 159.79519,141.7005 -0.744,-5.15557 1.06896,-0.15426 q 0.53782,0.47061 1.07564,0.94122 0.53856,0.47572 1.06093,0.87547 1.09304,0.84473 1.70294,1.12742 0.61502,0.28195 1.26458,0.18821 0.5933,-0.0856 0.86892,-0.52742 0.28148,-0.43743 0.18036,-1.13814 -0.0672,-0.46543 -0.30908,-0.98397 -0.2419,-0.51853 -0.65402,-0.9864 l -0.007,-0.0511 1.07408,-0.155 q 0.23142,0.33731 0.46684,0.91944 0.23616,0.58724 0.31808,1.15496 0.16903,1.17126 -0.30275,1.9181 -0.46666,0.74609 -1.43333,0.88559 -0.43475,0.0627 -0.82947,0.005 -0.38887,-0.0535 -0.75744,-0.21962 -0.34589,-0.15371 -0.69189,-0.38051 -0.34526,-0.22167 -0.77399,-0.55139 -0.61601,-0.46977 -1.20651,-0.97977 -0.58538,-0.51074 -1.08808,-0.95509 l 0.59121,4.09684 z"
         style="stroke-width:0.26458332"
         id="path3932"
         inkscape:connector-curvature="0" />
      <path
         d="m 163.92882,148.30837 q -2.07126,0.0632 -3.06218,-0.55803 -0.98559,-0.61619 -1.02718,-1.97982 -0.0422,-1.38428 0.91964,-2.0547 0.96202,-0.66526 2.99712,-0.72733 2.0506,-0.0625 3.04653,0.55334 1.00109,0.61572 1.04283,1.98451 0.0422,1.38428 -0.93529,2.05001 -0.97219,0.67074 -2.98147,0.73202 z m -2.38645,-1.28693 q 0.4239,0.16802 0.9888,0.21283 0.57022,0.0498 1.36567,0.0256 0.78512,-0.0239 1.36157,-0.10874 0.57662,-0.0796 0.97384,-0.27786 0.39221,-0.19292 0.58404,-0.51414 0.19199,-0.31606 0.17703,-0.80676 -0.0148,-0.48553 -0.22602,-0.79963 -0.21106,-0.30894 -0.62478,-0.48244 -0.38759,-0.16396 -1.0043,-0.21236 -0.61655,-0.0432 -1.35002,-0.0209 -0.80577,0.0246 -1.34639,0.0979 -0.54062,0.0734 -0.96366,0.27238 -0.39769,0.18274 -0.60001,0.49912 -0.20217,0.32154 -0.18642,0.83806 0.0148,0.48553 0.22602,0.79963 0.21122,0.3141 0.62463,0.47728 z"
         style="stroke-width:0.26458332"
         id="path3934"
         inkscape:connector-curvature="0" />
      <path
         d="m 159.63561,154.72291 0.34723,-4.15062 0.78274,0.0655 -0.13354,1.59639 5.13935,0.42994 0.13355,-1.59639 0.70035,0.0586 q -0.0271,0.32443 -0.007,0.69951 0.0256,0.37552 0.11268,0.57467 0.10893,0.24765 0.29341,0.39791 0.18921,0.15585 0.52221,0.20445 l -0.0668,0.79819 -6.91084,-0.57813 -0.13096,1.56549 z"
         style="stroke-width:0.26458332"
         id="path3936"
         inkscape:connector-curvature="0" />
      <path
         d="m 160.44559,162.26322 q -0.97796,-0.19576 -1.47339,-1.09072 -0.49644,-0.8899 -0.26518,-2.04521 0.24546,-1.22624 1.02491,-1.82912 0.77844,-0.59781 1.76652,-0.40002 0.62833,0.12577 1.06201,0.59204 0.43875,0.46727 0.60484,1.19091 l 0.0304,0.006 q 0.44601,-0.54314 0.88994,-0.75995 0.44292,-0.21174 1.02057,-0.0961 0.85128,0.17041 1.27882,0.98327 0.42754,0.81287 0.2115,1.89216 -0.22619,1.12997 -0.90328,1.69537 -0.67708,0.5654 -1.51316,0.39803 -0.51178,-0.10244 -0.94445,-0.52107 -0.42761,-0.41762 -0.58256,-1.09159 l -0.0304,-0.006 q -0.44603,0.64854 -0.967,0.93425 -0.52096,0.28571 -1.21009,0.14776 z m 3.92419,-0.46351 q 0.54218,0.10853 0.94559,-0.24814 0.40747,-0.35058 0.5373,-0.99918 0.12781,-0.63845 -0.0941,-1.10975 -0.22289,-0.46623 -0.73973,-0.56969 -0.36483,-0.073 -0.67396,0.0759 -0.30508,0.15501 -0.59601,0.52893 -0.12873,0.16922 -0.34567,0.48944 -0.21794,0.32528 -0.38116,0.64044 0.23401,0.56859 0.55523,0.83316 0.32122,0.26456 0.79247,0.35889 z m -3.81152,-0.59959 q 0.46618,0.0933 0.78645,-0.0587 0.32433,-0.14588 0.72778,-0.687 0.15915,-0.21584 0.31223,-0.48033 0.15307,-0.26448 0.41969,-0.70124 -0.15701,-0.50574 -0.52686,-0.86963 -0.37086,-0.35883 -0.90798,-0.46635 -0.68406,-0.13693 -1.2243,0.24506 -0.54023,0.38198 -0.68528,1.10658 -0.14809,0.7398 0.1437,1.25671 0.29078,0.52198 0.95457,0.65485 z"
         style="stroke-width:0.26458332"
         id="path3938"
         inkscape:connector-curvature="0" />
    </g>
  </g>
</svg>
